<svg width="61" height="46" viewBox="0 0 61 46" fill="none" xmlns="http://www.w3.org/2000/svg">
<path d="M0 2C0 0.89543 0.895431 0 2 0H33.7726C35.1239 0 36.0863 1.31243 35.68 2.60127L22.4409 44.6013C22.1785 45.4338 21.4064 46 20.5334 46H2C0.89543 46 0 45.1046 0 44V2Z" fill="#5B9EFF"/>
<path d="M60.5 44C60.5 45.1046 59.6046 46 58.5 46H26.7274C25.3761 46 24.4137 44.6876 24.82 43.3987L38.0591 1.39873C38.3215 0.56617 39.0936 0 39.9666 0H58.5C59.6046 0 60.5 0.895432 60.5 2V44Z" fill="#5B9EFF"/>
<path d="M12.4805 24.1055L23.1641 27.6992V33.6953L5.89844 26.6641V21.4688L23.1641 14.4375V20.4141L12.4805 24.1055Z" fill="#252525"/>
<path d="M48.793 24.0469L38.168 20.4336V14.457L55.3359 21.4883V26.6836L38.168 33.7148V27.7383L48.793 24.0469Z" fill="#252525"/>
</svg>
